<svg width="43" height="34" viewBox="0 0 43 34" fill="none" xmlns="http://www.w3.org/2000/svg">
<path d="M38.8349 0.087822C38.4043 0.191395 37.9738 0.389904 37.0467 0.912075C34.292 2.46996 30.7947 5.14986 26.779 8.77485C23.207 12.0028 18.5191 16.6721 14.912 20.6035C14.5385 21.0049 14.2222 21.3415 14.2046 21.3501C14.1563 21.3674 12.2627 19.693 8.37438 16.1931C6.50273 14.5101 5.9052 14.0829 5.00892 13.7808C3.26028 13.1939 1.21289 14.0742 0.37811 15.7702C0.0925293 16.3528 0.000264649 16.7455 0.000264649 17.3885C-0.00412891 17.9884 0.0442002 18.23 0.294633 18.8126C0.602182 19.5203 0.940486 19.9389 2.20583 21.1861C5.86566 24.7895 9.41566 28.7986 11.2609 31.4138C11.7926 32.1646 12.0913 32.5228 12.5175 32.9285C13.0975 33.4679 13.5983 33.7484 14.2881 33.921C14.6044 33.9987 14.745 34.0074 15.2327 33.9901C15.8874 33.9685 16.1773 33.8995 16.687 33.6621C17.1307 33.455 17.4998 33.1788 17.8733 32.7861C18.3038 32.3286 18.563 31.9748 19.3231 30.788C20.7466 28.5699 22.5656 25.9504 24.2263 23.7279C29.5425 16.6204 34.9466 10.9498 40.0563 7.12634C42.0158 5.65908 42.5914 5.06355 42.8814 4.20909C42.9868 3.89838 43 3.79049 43 3.27695C43 2.60374 42.9385 2.32755 42.6749 1.78812C42.2531 0.925026 41.4666 0.316544 40.4781 0.0835075C39.9904 -0.0286942 39.3138 -0.0286942 38.8349 0.087822Z" fill="#005AFF"/>
</svg>
