<?xml version="1.0" standalone="no"?>
<!DOCTYPE svg PUBLIC "-//W3C//DTD SVG 20010904//EN"
 "http://www.w3.org/TR/2001/REC-SVG-20010904/DTD/svg10.dtd">
<svg version="1.0" xmlns="http://www.w3.org/2000/svg"
 width="400.000000pt" height="400.000000pt" viewBox="0 0 400.000000 400.000000"
 preserveAspectRatio="xMidYMid meet">

<g transform="translate(0.000000,400.000000) scale(0.100000,-0.100000)"
fill="#0000CD" stroke="none">
<path d="M1044 3645 c-10 -8 -27 -15 -37 -15 -10 0 -26 -13 -35 -30 -9 -16
-20 -30 -24 -30 -5 0 -8 -7 -8 -15 0 -7 -6 -18 -13 -22 -13 -7 -23 -24 -59
-93 -7 -14 -17 -30 -23 -37 -5 -7 -16 -20 -24 -29 -7 -9 -25 -37 -38 -62 -14
-26 -28 -49 -32 -52 -3 -3 -12 -16 -19 -30 -35 -67 -46 -86 -59 -93 -7 -4 -13
-15 -13 -22 0 -8 -4 -15 -10 -15 -5 0 -10 -5 -10 -11 0 -6 -9 -22 -20 -36 -11
-14 -20 -34 -20 -44 0 -9 -6 -24 -13 -31 -7 -7 -24 -33 -38 -58 -13 -25 -28
-48 -32 -51 -11 -8 -32 -44 -49 -81 -7 -16 -16 -28 -20 -28 -4 0 -8 -7 -8 -15
0 -8 -9 -23 -20 -32 -11 -10 -20 -25 -20 -34 0 -9 -7 -22 -15 -29 -8 -7 -15
-18 -15 -26 0 -7 -6 -19 -12 -26 -7 -7 -26 -39 -43 -71 -16 -31 -33 -57 -36
-57 -4 0 -10 -12 -14 -27 -3 -16 -12 -35 -19 -43 -28 -32 -86 -120 -86 -130 0
-5 -4 -10 -10 -10 -5 0 -10 -7 -10 -15 0 -8 -9 -23 -20 -32 -11 -10 -20 -25
-20 -34 0 -9 -9 -24 -20 -34 -11 -10 -20 -24 -20 -32 0 -7 -4 -13 -8 -13 -22
0 -42 -153 -22 -165 6 -3 10 -13 10 -21 0 -9 16 -39 35 -68 19 -29 35 -58 35
-65 0 -6 4 -11 10 -11 5 0 12 -11 16 -25 3 -13 12 -29 20 -36 8 -6 14 -18 14
-25 0 -8 9 -23 20 -34 11 -11 20 -27 20 -35 0 -8 4 -15 9 -15 5 0 27 -34 48
-76 21 -42 43 -79 50 -81 6 -3 15 -17 18 -33 3 -16 13 -34 21 -41 8 -6 14 -18
14 -25 0 -8 4 -14 9 -14 5 0 14 -14 20 -30 5 -17 14 -30 18 -30 5 0 20 -21 33
-47 14 -26 37 -59 51 -73 14 -15 29 -39 33 -56 4 -16 11 -31 15 -34 9 -6 35
-53 52 -92 6 -16 15 -28 20 -28 4 0 20 -24 34 -52 43 -88 58 -113 69 -120 6
-3 20 -27 31 -52 11 -25 23 -46 27 -46 4 0 14 -15 23 -32 17 -37 34 -66 53
-86 6 -7 12 -20 12 -28 0 -8 7 -17 15 -20 8 -4 15 -11 15 -18 0 -6 9 -19 20
-29 11 -9 20 -22 20 -29 1 -16 68 -68 87 -68 7 0 13 -5 13 -11 0 -9 122 -10
478 -5 262 4 680 9 927 11 471 4 543 8 552 31 3 8 11 14 18 14 7 0 23 16 35
35 12 19 28 35 36 35 8 0 14 4 14 9 0 6 14 30 30 54 17 25 30 49 30 54 0 5 9
16 20 26 11 9 20 25 20 36 0 10 6 21 14 24 7 3 16 17 20 32 4 15 16 36 28 48
11 12 27 37 34 54 8 18 18 33 23 33 5 0 12 14 16 30 4 16 11 30 16 30 5 0 9 6
9 13 0 8 9 22 20 32 11 10 20 26 20 37 0 10 5 18 11 18 5 0 15 14 20 30 6 17
15 30 20 30 5 0 9 8 9 17 0 9 18 43 40 74 22 32 40 62 40 68 0 6 5 11 10 11 6
0 10 5 10 11 0 6 9 22 20 36 11 14 20 33 20 42 1 9 14 32 30 51 17 19 30 39
30 45 0 6 9 18 20 28 11 9 20 23 20 31 0 8 6 19 13 23 13 9 30 33 49 73 7 14
18 31 25 38 7 7 13 22 13 33 0 10 4 19 10 19 5 0 17 16 26 35 9 19 27 45 40
58 13 12 24 32 24 44 0 12 5 25 10 28 38 24 81 197 60 243 -37 80 -46 98 -57
110 -7 7 -13 21 -13 30 0 10 -9 25 -20 35 -11 9 -20 24 -20 32 0 8 -5 15 -10
15 -6 0 -15 11 -20 25 -5 14 -14 25 -20 25 -5 0 -10 6 -10 13 0 8 -9 24 -20
37 -11 13 -20 29 -20 37 0 7 -4 13 -9 13 -5 0 -12 13 -16 29 -3 16 -13 32 -21
35 -8 3 -14 13 -14 22 0 10 -6 25 -14 33 -8 9 -26 40 -41 69 -15 29 -31 55
-36 58 -5 3 -9 14 -9 25 0 10 -4 19 -10 19 -5 0 -24 29 -41 65 -18 36 -36 65
-41 65 -4 0 -8 8 -8 18 0 10 -9 25 -20 35 -11 9 -20 24 -20 32 0 8 -3 15 -8
15 -7 0 -17 16 -47 78 -8 17 -19 32 -24 32 -5 0 -12 14 -16 30 -4 17 -10 30
-14 30 -3 0 -12 12 -19 28 -18 40 -39 74 -50 81 -5 3 -19 27 -31 54 -12 26
-25 47 -30 47 -5 0 -14 14 -20 30 -5 17 -14 30 -19 30 -6 0 -13 12 -16 26 -7
28 -85 145 -120 180 -56 57 -2 54 -1034 54 -818 0 -951 -2 -968 -15z m1729
-684 c14 -5 50 -35 82 -65 31 -31 61 -56 66 -56 5 0 9 -4 9 -9 0 -12 78 -91
90 -91 6 0 14 -8 17 -17 6 -16 39 -53 47 -53 7 0 56 -47 56 -53 0 -10 70 -77
80 -77 6 0 10 -4 10 -8 0 -5 28 -38 61 -73 34 -35 68 -78 75 -96 8 -17 18 -34
24 -38 5 -3 10 -17 10 -31 0 -13 9 -41 20 -61 11 -21 20 -50 20 -65 0 -15 4
-29 9 -32 4 -3 11 -28 15 -56 4 -27 11 -50 15 -50 5 0 14 -22 21 -50 7 -27 16
-50 21 -50 16 0 10 -75 -9 -112 -19 -37 -83 -102 -139 -141 -32 -21 -33 -25
-33 -91 0 -61 -3 -71 -26 -93 -14 -13 -39 -27 -55 -30 -16 -3 -29 -9 -29 -13
0 -5 -18 -11 -39 -15 -22 -4 -45 -13 -52 -21 -6 -8 -22 -14 -34 -14 -23 0
-105 47 -105 60 0 4 -12 20 -26 36 -14 16 -36 40 -48 54 -56 63 -67 86 -64
131 l3 44 160 6 c111 4 169 10 190 21 17 8 49 23 72 34 28 12 43 26 44 39 4
43 -4 101 -14 113 -5 7 -14 36 -18 64 -5 28 -13 54 -18 58 -6 3 -13 25 -17 50
-4 24 -13 55 -21 69 -7 14 -13 34 -13 44 0 10 -16 27 -35 38 -19 12 -35 25
-35 30 0 5 -8 9 -18 9 -11 0 -27 9 -37 20 -10 11 -24 20 -32 20 -7 0 -13 5
-13 10 0 6 -7 10 -15 10 -8 0 -23 9 -32 20 -10 11 -25 20 -35 20 -10 0 -18 6
-18 14 0 8 -13 17 -30 21 -16 4 -30 11 -30 16 0 5 -6 9 -13 9 -8 0 -22 9 -32
20 -10 11 -26 20 -36 20 -10 0 -22 6 -26 13 -4 6 -24 20 -44 30 -35 18 -38 18
-63 2 -14 -10 -26 -24 -26 -31 0 -8 -4 -14 -10 -14 -5 0 -10 -9 -10 -20 0 -11
-9 -28 -20 -37 -11 -10 -20 -23 -20 -30 0 -7 -13 -38 -30 -68 -16 -30 -30 -62
-30 -70 0 -9 -9 -23 -20 -32 -11 -10 -20 -25 -20 -35 0 -9 -6 -23 -14 -30 -7
-8 -17 -25 -21 -38 -4 -13 -16 -38 -26 -54 -33 -56 -99 -189 -99 -201 0 -14
-37 -47 -70 -62 -14 -7 -62 -13 -107 -15 -87 -3 -109 -14 -99 -46 5 -14 19
-22 49 -27 22 -4 49 -13 59 -19 14 -8 20 -8 26 1 14 22 151 36 227 24 38 -5
71 -14 74 -18 3 -5 18 -14 34 -20 15 -7 27 -17 27 -23 0 -5 5 -10 11 -10 7 0
23 -12 37 -27 43 -47 51 -239 11 -288 -8 -9 -24 -28 -36 -41 -13 -14 -23 -28
-23 -32 0 -7 -42 -27 -137 -67 -56 -23 -148 -12 -213 26 -8 5 -27 14 -42 20
-16 6 -28 17 -28 25 0 8 -9 23 -20 34 -11 11 -20 22 -20 25 0 2 -11 16 -25 30
l-26 25 -370 0 c-343 0 -370 -1 -376 -17 -4 -10 -15 -27 -25 -37 -10 -11 -18
-24 -18 -29 0 -12 -65 -77 -78 -77 -5 0 -22 -10 -38 -23 -25 -20 -39 -22 -129
-21 -96 0 -102 2 -150 34 -44 30 -63 48 -117 110 -17 19 -23 196 -9 230 18 41
62 100 75 100 3 0 20 14 38 30 18 17 44 33 58 36 14 3 35 10 48 15 29 11 139
12 146 0 3 -4 25 -11 49 -14 23 -3 49 -8 57 -11 8 -3 23 1 33 8 18 14 18 16 1
41 l-17 26 -283 -3 -283 -3 -30 34 c-30 33 -31 39 -31 121 0 55 5 92 14 105 7
11 16 40 19 65 3 24 11 46 16 48 6 2 11 14 11 26 0 24 41 76 60 76 6 0 13 7
16 15 4 10 20 15 43 15 21 0 60 7 87 15 38 11 108 15 310 14 144 0 273 3 288
7 18 4 28 15 32 33 3 14 14 44 25 67 10 23 19 46 19 53 0 31 58 97 110 124 30
16 61 18 239 19 112 0 206 -3 210 -8 3 -5 18 -15 34 -23 15 -8 27 -20 27 -26
0 -7 9 -23 19 -37 11 -13 21 -42 23 -64 2 -32 7 -40 26 -42 21 -3 71 32 72 50
0 4 12 20 26 35 15 15 31 40 36 56 6 15 14 27 19 27 6 0 15 14 20 30 6 17 15
30 20 30 5 0 9 7 9 15 0 9 7 18 15 21 8 4 15 14 15 24 0 9 9 25 20 35 11 10
20 24 20 32 0 7 6 13 13 13 7 0 18 12 25 28 26 55 37 72 49 72 7 0 13 6 13 14
0 8 9 18 20 21 11 3 20 10 20 15 0 13 60 30 87 24 12 -2 33 -8 46 -13z"/>
</g>
</svg>
