<?xml version="1.0" standalone="no"?>
<!DOCTYPE svg PUBLIC "-//W3C//DTD SVG 20010904//EN"
 "http://www.w3.org/TR/2001/REC-SVG-20010904/DTD/svg10.dtd">
<svg version="1.0" xmlns="http://www.w3.org/2000/svg"
 width="400.000000pt" height="400.000000pt" viewBox="0 0 400.000000 400.000000"
 preserveAspectRatio="xMidYMid meet">

<g transform="translate(0.000000,400.000000) scale(0.100000,-0.100000)"
fill="#000000" stroke="none">
<path d="M398 2654 c-3 -3 -4 -13 -1 -24 6 -23 50 -32 68 -14 7 8 24 14 37 14
34 0 68 11 68 21 0 10 -163 13 -172 3z"/>
<path d="M690 2650 c0 -6 11 -15 25 -20 14 -5 25 -14 25 -20 0 -5 7 -10 16
-10 8 0 47 -31 85 -70 39 -38 74 -70 79 -70 4 0 10 -7 14 -15 3 -8 10 -15 16
-15 5 0 10 7 10 15 0 8 -7 15 -15 15 -8 0 -15 9 -15 20 0 11 -7 20 -15 20 -8
0 -15 6 -15 12 0 14 -80 88 -95 88 -6 0 -21 14 -35 30 -24 29 -80 43 -80 20z"/>
<path d="M2577 2653 c-11 -10 -8 -43 3 -43 6 0 10 5 10 10 0 6 8 10 19 10 15
0 20 -10 25 -45 4 -25 11 -45 17 -45 13 0 11 94 -3 108 -13 13 -60 16 -71 5z"/>
<path d="M310 2551 c0 -12 5 -21 10 -21 6 0 10 6 10 14 0 8 -4 18 -10 21 -5 3
-10 -3 -10 -14z"/>
<path d="M2316 2544 c-14 -13 -23 -64 -13 -64 12 0 67 33 67 40 0 38 -28 51
-54 24z"/>
<path d="M3373 2502 c-8 -18 -9 -41 -3 -72 5 -25 9 -71 10 -102 l0 -57 158 -3
157 -3 3 -28 c4 -31 -24 -50 -39 -26 -6 11 -11 11 -21 1 -17 -17 -67 -15 -74
3 -7 17 -53 10 -67 -9 -5 -7 -12 -5 -21 7 -16 21 -46 23 -46 2 0 -22 -15 -18
-33 8 -12 18 -16 19 -21 7 -3 -8 -10 -27 -15 -41 -8 -21 -15 -26 -34 -22 -14
3 -28 0 -31 -6 -13 -21 -55 10 -62 46 -8 40 -28 39 -32 -3 -2 -16 -7 -33 -12
-38 -4 -4 -40 -5 -79 -1 -52 5 -71 11 -71 21 0 8 -12 26 -26 39 -21 19 -24 27
-15 43 9 17 7 21 -14 26 -20 5 -25 13 -25 38 0 41 -12 29 -16 -17 -5 -52 -10
-57 -59 -50 -35 6 -45 4 -53 -11 -15 -27 -42 0 -42 42 0 19 -5 34 -10 34 -6 0
-9 -12 -8 -27 1 -16 -6 -42 -15 -60 -9 -18 -17 -47 -17 -65 0 -77 -2 -78 -106
-78 -59 0 -94 4 -94 11 0 15 -39 97 -49 103 -11 7 -51 -41 -51 -60 0 -9 11
-14 30 -14 27 0 30 -3 30 -34 0 -25 5 -35 19 -39 18 -4 20 -16 23 -116 3 -100
1 -111 -14 -111 -12 0 -18 -8 -18 -21 0 -12 -8 -23 -20 -26 -11 -3 -20 -12
-20 -19 0 -8 -9 -14 -20 -14 -14 0 -20 -7 -20 -21 0 -20 4 -21 45 -17 25 3 45
2 45 -3 0 -5 -20 -9 -45 -9 -33 0 -45 -4 -45 -15 0 -8 -4 -15 -10 -15 -5 0
-10 9 -10 20 0 24 41 22 -505 21 -658 0 -615 1 -615 -21 0 -11 -5 -20 -11 -20
-6 0 -9 9 -6 20 5 19 0 20 -116 22 -67 1 -133 1 -147 1 -14 -1 -76 -2 -137 -3
-95 0 -113 -3 -113 -16 0 -9 -5 -13 -12 -10 -7 3 -21 9 -30 12 -11 4 -18 16
-18 30 0 20 -5 24 -29 24 -21 0 -32 6 -36 20 -3 11 -13 20 -20 20 -9 0 -16 17
-20 44 -4 25 -13 47 -21 50 -11 4 -14 31 -14 122 0 107 1 116 20 121 16 4 20
13 19 47 -1 55 -12 85 -25 65 -30 -46 -37 -70 -39 -124 -1 -33 -7 -61 -14 -63
-14 -5 -14 -27 0 -50 8 -12 8 -31 1 -62 -7 -32 -10 -37 -11 -18 -1 15 -8 33
-16 42 -8 8 -15 19 -15 25 0 6 -6 11 -14 11 -7 0 -19 7 -26 15 -15 18 -25 19
-42 2 -7 -7 -21 -16 -30 -20 -15 -5 -18 -1 -18 21 0 15 5 44 11 66 12 43 3
159 -12 150 -5 -3 -9 -45 -9 -95 0 -70 -3 -89 -14 -89 -8 0 -17 -14 -21 -31
-4 -17 -13 -33 -21 -36 -11 -4 -14 -46 -14 -230 0 -216 1 -225 20 -230 15 -4
19 -13 17 -37 -2 -25 2 -32 21 -34 15 -2 22 2 22 12 0 9 8 16 20 16 11 0 20
-6 20 -12 1 -28 47 -58 89 -58 36 0 41 -3 41 -22 -1 -21 -2 -21 -11 -5 -7 12
-23 17 -53 17 -36 0 -45 4 -49 21 -4 16 -12 20 -34 17 -30 -3 -47 -38 -19 -38
9 0 24 -9 33 -20 10 -11 25 -20 33 -20 9 0 25 -7 36 -15 16 -12 161 -14 1060
-15 917 0 1043 2 1048 15 3 8 18 15 33 15 16 0 36 9 46 20 9 11 24 20 32 20 8
0 15 7 15 15 0 8 9 23 20 32 12 11 20 30 20 50 0 23 5 33 15 33 13 0 15 38 17
263 l3 262 98 3 c80 2 98 0 103 -13 4 -10 19 -15 47 -15 23 0 48 -7 58 -16 14
-12 49 -17 158 -21 l140 -6 6 -28 c8 -38 25 -37 25 0 l0 29 143 -1 c133 -2
173 -8 163 -26 -3 -4 -1 -13 5 -21 6 -11 9 -7 9 16 0 34 13 44 56 44 13 0 24
5 24 10 0 6 11 15 25 20 27 10 34 47 13 68 -9 9 -9 15 0 24 19 19 14 25 -15
21 -50 -8 -79 11 -91 59 -10 42 -8 204 4 240 3 10 0 32 -8 48 -13 30 -34 33
-66 7 -9 -7 -18 -5 -30 6 -15 13 -20 14 -36 1 -25 -18 -45 -18 -66 1 -15 14
-22 13 -63 -2 -43 -16 -47 -16 -64 0 -17 15 -19 14 -30 -11z m317 -18 c0 -8
-5 -12 -10 -9 -6 4 -8 11 -5 16 9 14 15 11 15 -7z m-236 -87 c15 -6 17 -10 8
-19 -9 -9 -17 -7 -32 10 -11 11 -20 27 -20 34 1 9 4 8 13 -3 7 -8 21 -18 31
-22z m74 1 c-2 -13 -7 -23 -13 -23 -5 0 -11 10 -13 23 -2 15 2 22 13 22 11 0
15 -7 13 -22z m87 -8 c18 -7 19 -8 3 -15 -22 -9 -51 1 -43 15 7 12 13 12 40 0z
m79 -11 c-3 -5 -10 -7 -15 -3 -5 3 -7 10 -3 15 3 5 10 7 15 3 5 -3 7 -10 3
-15z m10 -255 c8 -21 -8 -25 -122 -28 -59 -1 -113 -5 -119 -9 -27 -17 -79 24
-58 45 3 3 71 6 150 5 110 0 145 -3 149 -13z m-1064 -75 c0 -15 32 -10 52 8
11 10 22 13 27 7 10 -12 1 -165 -10 -159 -4 3 -6 19 -2 35 9 48 -23 52 -64 7
-18 -21 -38 -37 -43 -37 -6 0 -11 -10 -11 -22 -1 -13 -6 18 -10 67 -5 50 -7
95 -5 101 5 13 66 6 66 -7z m-2290 -77 c0 -10 -6 -26 -13 -37 -10 -15 -13 -68
-13 -207 1 -104 -2 -188 -6 -188 -5 0 -8 101 -8 225 0 218 1 225 20 225 12 0
20 -7 20 -18z m210 -133 c0 -6 -4 -7 -10 -4 -5 3 -10 11 -10 16 0 6 5 7 10 4
6 -3 10 -11 10 -16z m30 -64 c0 -8 7 -15 15 -15 8 0 15 -7 15 -15 0 -9 10 -20
23 -25 22 -9 22 -9 -3 -9 -15 -1 -30 7 -38 19 -7 11 -21 20 -32 20 -13 0 -20
7 -20 20 0 13 7 20 20 20 11 0 20 -7 20 -15z m1959 -7 c0 -13 -3 -17 -6 -10
-2 6 -11 12 -19 12 -8 0 -14 5 -14 10 0 6 9 10 20 10 14 0 20 -6 19 -22z
m-1709 -78 c12 -8 11 -10 -7 -10 -13 0 -23 5 -23 10 0 13 11 13 30 0z m110 0
c0 -5 -10 -10 -22 -9 -22 0 -22 1 -3 9 11 5 21 9 23 9 1 1 2 -3 2 -9z m175 0
c4 -6 -19 -9 -62 -8 l-68 1 60 7 c33 4 61 7 62 8 1 1 5 -2 8 -8z m265 -6 c0
-2 -12 -4 -26 -4 -14 0 -23 4 -20 9 6 8 46 4 46 -5z m435 6 c3 -5 -1 -10 -10
-10 -9 0 -13 5 -10 10 3 6 8 10 10 10 2 0 7 -4 10 -10z m95 -6 c0 -2 -12 -4
-26 -4 -14 0 -23 4 -20 9 6 8 46 4 46 -5z m-697 -1 c-7 -2 -21 -2 -30 0 -10 3
-4 5 12 5 17 0 24 -2 18 -5z m260 0 c-7 -2 -19 -2 -25 0 -7 3 -2 5 12 5 14 0
19 -2 13 -5z m150 0 c-18 -2 -48 -2 -65 0 -18 2 -4 4 32 4 36 0 50 -2 33 -4z
m120 0 c-7 -2 -21 -2 -30 0 -10 3 -4 5 12 5 17 0 24 -2 18 -5z m260 0 c-7 -2
-19 -2 -25 0 -7 3 -2 5 12 5 14 0 19 -2 13 -5z m100 0 c-7 -2 -21 -2 -30 0
-10 3 -4 5 12 5 17 0 24 -2 18 -5z m84 1 c-3 -3 -12 -4 -19 -1 -8 3 -5 6 6 6
11 1 17 -2 13 -5z m96 -1 c-7 -2 -21 -2 -30 0 -10 3 -4 5 12 5 17 0 24 -2 18
-5z m424 -110 c-2 -16 -4 -3 -4 27 0 30 2 43 4 28 2 -16 2 -40 0 -55z m-1782
47 c3 -5 -1 -10 -10 -10 -8 0 -20 -11 -25 -25 -14 -36 -30 -31 -30 10 0 32 2
35 29 35 17 0 33 -4 36 -10z m525 -4 c0 -10 13 -16 38 -18 30 -2 38 -7 40 -26
4 -26 22 -20 22 9 0 24 28 25 46 2 12 -17 14 -17 27 2 13 17 18 18 41 7 18 -8
26 -19 26 -36 0 -13 8 -27 18 -31 33 -13 -10 -23 -95 -22 -70 1 -82 3 -86 19
-6 21 -37 25 -37 4 0 -14 -21 -26 -47 -26 -10 0 -14 9 -12 28 2 30 -9 62 -21
62 -4 0 -11 -11 -14 -25 -4 -14 -13 -25 -22 -25 -9 0 -18 -9 -21 -19 -4 -17
-13 -19 -94 -16 -71 3 -93 0 -105 -13 -15 -14 -18 -14 -34 8 l-18 25 -7 -27
c-13 -51 -75 -38 -75 16 0 20 -16 21 -24 1 -6 -15 -61 -21 -69 -7 -6 11 4 92
12 92 4 0 11 -14 16 -32 13 -43 33 -47 37 -7 l3 32 114 4 c96 2 116 0 126 -14
11 -15 12 -15 18 1 10 24 67 22 74 -4 8 -31 21 -24 29 15 6 34 8 35 50 35 32
0 44 -4 44 -14z m300 5 c0 -9 -24 -21 -41 -21 -5 0 -9 7 -9 15 0 9 9 15 25 15
14 0 25 -4 25 -9z m107 -37 c3 -9 16 -27 28 -40 19 -21 24 -22 34 -10 10 12 8
17 -8 28 -31 19 -26 38 9 38 24 0 33 -6 42 -27 l11 -28 10 28 c8 21 17 27 39
27 18 0 31 -7 35 -17 4 -9 15 -25 25 -35 35 -35 18 -43 -86 -43 -81 0 -100 -3
-110 -17 -19 -26 -24 -22 -32 17 -7 39 -28 46 -44 14 -17 -30 -56 -22 -52 11
1 14 9 30 17 36 8 6 15 16 15 23 0 18 60 13 67 -5z m288 -5 l36 -22 6 22 c4
15 12 21 25 19 26 -4 25 -21 -1 -33 -26 -12 -27 -30 -3 -40 16 -6 16 -7 -1
-17 -28 -15 -88 -1 -86 20 3 32 -1 42 -16 42 -16 0 -20 12 -8 23 9 9 7 10 48
-14z m-1295 -59 c0 -11 -4 -20 -10 -20 -5 0 -10 9 -10 20 0 11 5 20 10 20 6 0
10 -9 10 -20z m1830 -20 c0 -11 -7 -20 -15 -20 -8 0 -15 -9 -15 -20 0 -11 -5
-20 -11 -20 -6 0 -8 7 -5 16 3 9 6 20 6 25 0 5 7 9 15 9 8 0 15 7 15 15 0 8 2
15 5 15 3 0 5 -9 5 -20z m-1792 -86 c2 -1 -1 -11 -7 -21 -6 -10 -11 -12 -11
-5 0 14 -60 17 -60 2 0 -13 -137 -13 -142 -1 -1 5 -20 12 -40 16 -31 6 -38 4
-38 -9 0 -9 -7 -16 -15 -16 -8 0 -15 9 -15 20 0 18 7 20 56 20 42 0 60 -4 70
-17 11 -15 16 -16 33 -6 14 9 28 10 45 3 19 -7 28 -6 33 4 11 18 34 25 63 19
14 -3 27 -7 28 -9z m1060 -5 c5 -12 42 -11 42 1 0 6 27 10 60 10 53 0 60 -2
60 -20 0 -18 -7 -20 -85 -20 -50 0 -85 4 -85 10 0 6 -13 10 -30 10 -16 0 -30
-4 -30 -10 0 -6 -30 -10 -70 -10 -40 0 -70 4 -70 10 0 6 -20 10 -45 10 -25 0
-45 -4 -45 -10 0 -5 -4 -10 -10 -10 -5 0 -10 9 -10 20 0 18 7 20 54 20 39 0
55 -4 60 -15 7 -21 43 -19 55 3 6 9 11 11 11 5 0 -15 60 -18 60 -4 0 21 70 20
78 0z m544 -3 c5 -8 13 -7 28 2 11 6 37 11 57 10 37 -1 37 -1 6 -5 -20 -3 -33
-10 -33 -19 0 -10 -12 -14 -40 -14 -22 0 -40 5 -40 10 0 6 -13 10 -30 10 -16
0 -30 -4 -30 -10 0 -13 -137 -13 -142 -1 -1 5 -20 12 -40 16 -31 6 -38 4 -38
-9 0 -9 -7 -16 -15 -16 -8 0 -15 9 -15 20 0 18 7 20 56 20 42 0 60 -4 70 -17
11 -15 16 -16 33 -6 14 9 28 10 45 3 19 -7 28 -6 33 4 16 26 78 28 95 2z
m-1538 -1 c3 -8 12 -15 21 -15 8 0 15 7 15 15 0 10 10 15 31 15 24 0 30 -4 27
-17 -2 -14 -15 -19 -57 -21 -51 -3 -70 5 -71 31 0 13 28 7 34 -8z m260 0 c7
-19 30 -19 50 1 9 8 16 11 16 5 0 -6 14 -11 30 -11 17 0 30 5 30 10 0 6 16 10
35 10 30 0 35 -3 34 -22 0 -13 -3 -17 -6 -10 -6 14 -63 17 -63 2 0 -6 -35 -10
-85 -10 -50 0 -85 4 -85 10 0 6 -11 10 -25 10 -14 0 -25 -4 -25 -10 0 -5 -7
-10 -15 -10 -17 0 -18 2 -9 24 8 22 109 23 118 1z m366 -5 c0 -24 -32 -27 -50
-5 -7 8 -19 15 -26 15 -8 0 -14 -7 -14 -15 0 -8 -7 -15 -15 -15 -8 0 -15 9
-15 20 0 18 7 20 60 20 53 0 60 -2 60 -20z"/>
<path d="M1067 1564 c-13 -13 -7 -24 14 -24 11 0 19 5 17 12 -5 14 -22 21 -31
12z"/>
<path d="M1165 1561 c-8 -15 3 -31 21 -31 9 0 14 7 12 17 -4 20 -24 28 -33 14z"/>
<path d="M1265 1561 c-8 -15 3 -31 21 -31 9 0 14 7 12 17 -4 20 -24 28 -33 14z"/>
<path d="M3202 2478 c6 -18 25 -20 31 -3 5 10 0 15 -14 15 -12 0 -19 -5 -17
-12z"/>
<path d="M2235 2450 c4 -6 11 -8 16 -5 14 9 11 15 -7 15 -8 0 -12 -5 -9 -10z"/>
<path d="M2158 2420 c-15 -11 -33 -20 -41 -20 -22 0 -31 -18 -17 -35 14 -17
34 -9 76 30 36 33 19 55 -18 25z"/>
<path d="M340 2415 c0 -8 5 -15 10 -15 6 0 10 7 10 15 0 8 -4 15 -10 15 -5 0
-10 -7 -10 -15z"/>
<path d="M970 2415 c0 -8 5 -15 10 -15 6 0 10 7 10 15 0 8 -4 15 -10 15 -5 0
-10 -7 -10 -15z"/>
<path d="M2496 2422 c-11 -18 6 -20 89 -12 67 6 71 7 29 9 -28 0 -65 4 -82 7
-16 3 -32 1 -36 -4z"/>
<path d="M2715 2420 c-17 -7 -17 -9 -3 -9 10 -1 22 -10 28 -20 10 -19 11 -19
34 2 22 19 23 23 8 29 -23 9 -43 8 -67 -2z"/>
<path d="M2935 2410 c3 -5 10 -10 16 -10 5 0 9 5 9 10 0 6 -7 10 -16 10 -8 0
-12 -4 -9 -10z"/>
<path d="M2476 2363 c-11 -11 -6 -23 9 -23 8 0 15 4 15 9 0 13 -16 22 -24 14z"/>
<path d="M1840 2350 c0 -5 7 -10 16 -10 8 0 12 5 9 10 -3 6 -10 10 -16 10 -5
0 -9 -4 -9 -10z"/>
<path d="M962 2313 c-19 -22 -30 -53 -17 -53 23 0 55 27 55 46 0 33 -12 36
-38 7z"/>
<path d="M1753 2313 c9 -2 25 -2 35 0 9 3 1 5 -18 5 -19 0 -27 -2 -17 -5z"/>
<path d="M2476 2291 c-4 -7 -5 -15 -2 -18 9 -9 19 4 14 18 -4 11 -6 11 -12 0z"/>
<path d="M1038 2278 c15 -15 16 -74 2 -83 -6 -4 -8 -15 -5 -25 8 -25 -13 -36
-29 -15 -9 13 -20 16 -39 11 -30 -7 -43 7 -38 42 1 12 -2 22 -7 22 -16 0 -21
-113 -6 -126 7 -5 16 -22 19 -37 6 -24 12 -27 51 -27 37 0 44 -3 44 -20 0 -18
7 -20 64 -20 65 0 86 -10 68 -33 -8 -9 -5 -20 9 -37 14 -17 22 -21 26 -12 9
22 31 12 42 -20 13 -35 25 -31 26 10 0 25 3 27 39 25 22 -2 44 -10 50 -19 7
-9 21 -14 32 -12 24 5 22 47 -4 66 -16 12 -16 14 2 27 10 8 23 16 27 17 5 2
10 14 11 27 l3 24 -176 -2 c-98 -1 -179 1 -182 6 -7 12 4 63 14 63 4 0 20 11
35 25 22 20 26 31 21 59 -7 46 -39 76 -79 76 -25 0 -29 -3 -20 -12z m262 -298
c0 -5 -11 -10 -25 -10 -14 0 -25 5 -25 10 0 6 11 10 25 10 14 0 25 -4 25 -10z"/>
<path d="M1665 2280 c-3 -5 -25 -10 -48 -10 -83 0 -141 -55 -101 -94 23 -23
48 -16 52 14 5 36 17 44 36 25 14 -15 17 -15 22 -1 8 20 30 21 38 1 3 -8 12
-15 21 -15 10 0 15 -10 15 -29 0 -17 5 -33 11 -36 14 -9 15 -7 22 48 6 42 5
47 -13 47 -13 0 -20 7 -20 20 0 11 7 20 15 20 8 0 15 5 15 10 0 6 -13 10 -29
10 -17 0 -33 -4 -36 -10z"/>
<path d="M1770 2220 c-13 -8 -12 -10 3 -10 9 0 17 5 17 10 0 12 -1 12 -20 0z"/>
<path d="M1303 2202 c-42 -22 -41 -30 2 -38 28 -5 35 -11 35 -30 0 -19 5 -24
24 -24 20 0 25 6 28 38 3 20 1 39 -4 40 -4 2 -15 10 -22 18 -18 17 -23 17 -63
-4z"/>
<path d="M2261 2103 c2 -37 -1 -58 -9 -61 -8 -2 -12 7 -12 26 0 16 -6 35 -14
41 -12 10 -15 6 -21 -19 -7 -31 -39 -43 -47 -18 -3 8 -15 2 -34 -15 -16 -15
-34 -27 -41 -27 -18 0 -16 -17 4 -28 9 -5 14 -16 10 -25 -4 -11 -16 -13 -51
-10 -37 5 -47 2 -52 -11 -6 -15 -8 -15 -21 4 -18 26 -9 40 26 40 19 0 34 8 45
25 18 27 21 65 6 65 -5 0 -10 -7 -10 -15 0 -9 -9 -15 -24 -15 -13 0 -29 -7
-36 -15 -7 -8 -27 -15 -46 -15 -31 0 -59 -20 -38 -27 22 -8 38 -22 31 -29 -11
-11 -249 -6 -261 6 -6 6 -6 10 0 11 5 0 38 2 72 5 35 2 68 6 73 10 5 3 8 26 8
52 -1 26 -3 40 -6 30 -3 -14 -21 -16 -117 -17 -108 0 -166 -11 -166 -29 0 -4
-14 -13 -31 -19 -29 -11 -31 -15 -25 -45 4 -18 11 -34 16 -36 6 -2 10 -10 10
-17 0 -7 16 -16 35 -19 19 -4 35 -12 35 -19 0 -7 19 -21 41 -32 38 -18 42 -18
50 -2 6 9 17 17 24 17 8 0 15 5 15 10 0 6 14 10 30 10 17 0 30 -4 30 -10 0 -5
6 -10 14 -10 7 0 19 -7 26 -15 18 -22 32 -19 70 15 36 32 50 36 67 19 12 -12
51 5 66 29 11 16 38 15 73 -3 16 -8 55 -15 89 -15 56 0 61 -2 77 -30 22 -39
53 -39 94 -1 17 16 44 31 60 33 23 2 29 8 28 26 0 12 -1 54 -2 92 -2 55 -5 70
-17 70 -12 0 -13 -4 -5 -19 5 -11 10 -37 10 -58 0 -34 -4 -40 -30 -50 -24 -9
-36 -8 -59 3 -28 14 -29 15 -25 86 3 39 7 75 10 79 8 13 57 -1 72 -19 10 -14
12 -11 12 16 l0 32 -66 0 -65 0 2 -57z m-665 -88 c4 -8 3 -22 0 -32 -6 -14 -8
-14 -21 3 -8 10 -15 25 -15 32 0 17 29 15 36 -3z"/>
<path d="M1501 2126 c-9 -11 -8 -15 5 -20 23 -9 38 8 21 23 -11 9 -17 8 -26
-3z"/>
<path d="M731 1986 c-23 -27 -6 -49 32 -42 17 4 48 9 67 12 32 5 34 4 16 -10
-24 -19 -15 -58 18 -75 20 -11 28 -11 47 2 23 17 19 22 -26 29 -12 2 -21 12
-23 25 -3 20 -1 21 30 12 53 -15 248 -6 248 11 0 8 -126 31 -143 25 -7 -2 -40
-6 -74 -9 -52 -5 -63 -3 -63 9 0 11 -11 15 -37 15 -21 0 -47 3 -59 6 -12 3
-26 -1 -33 -10z"/>
</g>
</svg>
