<svg width="57" height="56" viewBox="0 0 57 56" fill="none" xmlns="http://www.w3.org/2000/svg">
<path d="M27.0384 0.461662C26.2684 0.533886 24.5858 0.894997 23.7445 1.17666C19.7662 2.48389 16.5222 5.34389 14.6614 9.18611C12.9004 12.8261 12.6508 16.5961 13.8557 21.2833C15.2246 26.6061 18.7823 33.72 24.1723 41.9028C25.9619 44.6111 28.3717 47.9695 28.5 47.9189C28.6426 47.8611 30.4892 45.3189 31.8937 43.2389C40.1855 31.0189 44.2921 21.305 43.8287 15.0289C43.6576 12.7394 43.2369 11.1217 42.2958 9.18611C41.697 7.93666 41.3048 7.30833 40.4992 6.29722C37.462 2.47666 33.0772 0.36055 28.2932 0.425552C27.7585 0.432774 27.1953 0.44722 27.0384 0.461662ZM30.1469 2.89555C35.0878 3.51666 39.3014 7.03389 40.8628 11.8439C41.3405 13.3244 41.5971 15.2094 41.5116 16.625C41.1979 21.8539 37.683 30.015 31.8652 39.0067C30.6603 40.8772 28.6426 43.7445 28.5 43.8022C28.3218 43.8672 24.7855 38.6239 23.1029 35.8C19.0033 28.9028 16.4367 22.9083 15.6667 18.4306C15.4742 17.3111 15.4029 15.4767 15.517 14.5233C16.1515 9.32333 19.5595 5.06944 24.4005 3.45166C26.2257 2.83778 28.1863 2.65 30.1469 2.89555Z" fill="#37455C"/>
<path d="M27.5589 10.0889C26.1045 10.3561 24.8425 11.0856 23.9442 12.1833C23.4736 12.7611 23.1385 13.375 22.8605 14.2056C22.6395 14.8556 22.6252 14.9494 22.6252 15.9389C22.6181 16.8128 22.6466 17.08 22.7821 17.5494C23.3738 19.6439 24.9851 21.2472 27.0384 21.7961C27.7158 21.9767 29.0133 22.0128 29.6764 21.8683C30.8243 21.6156 31.801 21.0594 32.6708 20.1639C33.9542 18.8567 34.5459 17.2028 34.3534 15.4839C34.1681 13.8517 33.6191 12.7322 32.4783 11.6344C31.7796 10.97 30.9526 10.4861 30.0685 10.2333C29.4696 10.06 28.115 9.98056 27.5589 10.0889ZM29.3484 12.5083C30.0044 12.6817 30.5106 12.9778 31.0025 13.4761C31.5301 14.0106 31.8082 14.5306 31.965 15.2744C32.0933 15.8883 32.0862 16.2206 31.9579 16.7983C31.58 18.4017 30.097 19.615 28.4929 19.6222C28.0081 19.6222 27.0955 19.3622 26.6606 19.095C25.3345 18.2933 24.6571 16.6178 25.0421 15.1083C25.5341 13.2017 27.509 12.01 29.3484 12.5083Z" fill="#37455C"/>
<path d="M4.14519 46.005L0.78714 55.5528L28.4501 55.5744C43.6647 55.5817 56.1273 55.5744 56.1487 55.5528C56.1701 55.5383 54.6729 51.2411 52.8263 46.005L49.4754 36.4861L44.9124 36.4644C40.6275 36.45 40.3494 36.4572 40.3067 36.5728C40.2781 36.645 39.9858 37.165 39.6507 37.7283C39.3228 38.2917 39.0518 38.7683 39.0518 38.79C39.0518 38.8189 41.0196 38.8333 43.4294 38.8333C47.529 38.8333 47.807 38.8406 47.8569 38.9561C47.8783 39.0283 49.0119 42.235 50.3666 46.0917C51.7212 49.9411 52.8405 53.1333 52.8619 53.1839C52.8905 53.2633 48.4344 53.2778 28.5071 53.2778C15.0892 53.2778 4.11668 53.2561 4.11668 53.22C4.11668 53.1911 5.25029 49.9483 6.63343 46.0194L9.15019 38.8694L13.542 38.8333L17.941 38.7972L17.2708 37.6417L16.6078 36.4861L12.052 36.4717L7.50325 36.45L4.14519 46.005Z" fill="#37455C"/>
</svg>
