<svg width="63" height="65" viewBox="0 0 63 65" fill="none" xmlns="http://www.w3.org/2000/svg">
<path d="M40.1227 3.0825C39.9141 3.19831 39.5161 3.50437 39.2457 3.76062C38.8229 4.16057 38.6106 4.45148 37.874 5.67093C36.8732 7.33343 32.744 14.6059 32.4547 15.2227C32.2051 15.7488 31.9934 16.8809 32.0309 17.458C32.102 18.3812 32.5216 19.2949 33.1838 19.9528C33.7423 20.5089 35.6652 21.9128 37.7554 23.2849L38.6433 23.8658L38.5482 24.2838C38.3541 25.1862 38.0945 26.1067 37.7186 27.2552C35.8464 32.9451 33.7254 36.7021 30.1326 40.6855C29.1067 41.8182 27.8064 43.1648 27.7016 43.1938C27.6623 43.2047 27.3773 43.0806 27.0735 42.9109C25.0851 41.8225 22.5767 40.6242 21.8229 40.3978C20.2577 39.9393 18.6755 40.5516 17.5714 42.0324C17.285 42.4164 12.5951 50.9103 11.8785 52.3418C11.4563 53.1768 11.2714 53.7357 11.1906 54.4253C11.0839 55.3398 11.3291 56.4468 11.8176 57.2471C12.0964 57.6994 13.91 59.3584 14.8084 59.9799C17.6419 61.9439 20.7814 62.4089 25.2112 61.5156C27.9278 60.9734 30.2534 59.9521 32.7269 58.2298C36.95 55.2686 41.1952 50.1472 44.8816 43.5486C46.0817 41.4102 48.2174 37.4388 48.8033 36.2611C50.9276 32.0027 52.319 28.0851 53.0706 24.2722C54.0677 19.1873 53.7848 15.2838 52.1121 11.0835C50.5165 7.07214 48.471 4.81729 45.2251 3.48245C44.1238 3.02594 42.6888 2.58209 42.2838 2.5637C41.7522 2.54413 40.6086 2.81738 40.1227 3.0825ZM42.7136 5.19353C45.5575 6.0885 47.0579 7.10898 48.4229 9.09536C49.5065 10.6737 50.6907 13.7764 51.0308 15.9523C51.902 21.5279 50.1683 28.5357 45.9252 36.5868C45.5518 37.285 45.218 37.8924 45.1791 37.9322C45.1403 37.9719 44.6584 38.8742 44.105 39.9341C41.8724 44.208 39.3645 48.0432 36.902 50.9446C33.6746 54.7398 30.5559 57.1412 27.1837 58.4307C24.8183 59.3252 21.2636 59.7223 19.2879 59.3049C17.5777 58.9372 16.4006 58.2697 14.6438 56.6674C13.7604 55.8604 13.6103 55.6336 13.565 55.0804C13.5263 54.5254 13.6377 54.1972 14.3344 52.851C15.6211 50.3695 19.3823 43.6269 19.6375 43.3386C20.0074 42.9243 20.4067 42.7049 20.782 42.717C21.3332 42.7311 22.8765 43.4569 26.8958 45.6074L28.117 46.2556L28.4748 45.9026C30.3554 44.0327 31.3094 43.0286 32.6492 41.4825C34.4523 39.3947 35.3718 38.0956 36.6613 35.7874C38.6297 32.254 40.085 28.4202 40.9874 24.377C41.3687 22.654 41.3682 22.6251 41.015 22.4546C40.6055 22.2561 36.6734 19.6027 35.6057 18.7888C34.7496 18.141 34.6122 17.9905 34.4845 17.5254C34.3124 16.8623 34.3917 16.6808 36.351 13.1934C38.3822 9.57728 40.092 6.61595 40.4965 6.0107C40.8449 5.48629 41.2529 5.19195 41.7677 5.09286C42.0809 5.02789 42.2556 5.05202 42.7136 5.19353Z" fill="#37455C"/>
</svg>
